<svg width="21" height="20" viewBox="0 0 21 20" fill="none" xmlns="http://www.w3.org/2000/svg">
<path d="M2.6217 4.58331C2.6217 4.25179 2.7534 3.93385 2.98782 3.69943C3.22224 3.46501 3.54018 3.33331 3.8717 3.33331H18.0384C18.3699 3.33331 18.6878 3.46501 18.9223 3.69943C19.1567 3.93385 19.2884 4.25179 19.2884 4.58331C19.2884 4.91483 19.1567 5.23278 18.9223 5.4672C18.6878 5.70162 18.3699 5.83331 18.0384 5.83331H3.8717C3.54018 5.83331 3.22224 5.70162 2.98782 5.4672C2.7534 5.23278 2.6217 4.91483 2.6217 4.58331ZM5.95504 9.58331C5.95504 9.25179 6.08673 8.93385 6.32115 8.69943C6.55557 8.46501 6.87352 8.33331 7.20504 8.33331H14.705C15.0366 8.33331 15.3545 8.46501 15.5889 8.69943C15.8233 8.93385 15.955 9.25179 15.955 9.58331C15.955 9.91483 15.8233 10.2328 15.5889 10.4672C15.3545 10.7016 15.0366 10.8333 14.705 10.8333H7.20504C6.87352 10.8333 6.55557 10.7016 6.32115 10.4672C6.08673 10.2328 5.95504 9.91483 5.95504 9.58331ZM9.70504 13.3333C9.37352 13.3333 9.05557 13.465 8.82115 13.6994C8.58673 13.9339 8.45504 14.2518 8.45504 14.5833C8.45504 14.9148 8.58673 15.2328 8.82115 15.4672C9.05557 15.7016 9.37352 15.8333 9.70504 15.8333H12.205C12.5366 15.8333 12.8545 15.7016 13.0889 15.4672C13.3233 15.2328 13.455 14.9148 13.455 14.5833C13.455 14.2518 13.3233 13.9339 13.0889 13.6994C12.8545 13.465 12.5366 13.3333 12.205 13.3333H9.70504Z" fill="#001E48"/>
</svg>
