<svg width="20" height="22" viewBox="0 0 20 22" fill="none" xmlns="http://www.w3.org/2000/svg">
<path d="M16.0434 21.15C16.9987 21.1525 17.916 20.7775 18.5927 20.1074C19.2695 19.4373 19.65 18.5272 19.65 17.5778V8.86686C19.65 8.08762 19.302 7.34879 18.7004 6.84927L18.7005 6.84924L18.6978 6.84713L12.0277 1.55869C12.0276 1.55861 12.0275 1.55854 12.0274 1.55846C10.8114 0.586931 9.06991 0.617771 7.88961 1.63151L1.37438 6.84668C0.745076 7.33147 0.368654 8.07204 0.350041 8.86333L0.35 8.86333V8.86686V17.5689C0.35 19.5477 1.96557 21.15 3.95617 21.15H5.87229C6.5958 21.15 7.19202 20.5983 7.25284 19.8923L12.8563 19.7733L12.7063 19.7722C12.7063 19.7724 12.7063 19.7726 12.7063 19.7728C12.7037 20.1374 12.8478 20.4878 13.1063 20.7462C13.3649 21.0048 13.7164 21.15 14.0829 21.15H16.0434ZM16.0434 21.15L16.0438 21V21.15H16.0434Z" fill="url(#paint0_linear_341_810)"/>
<path d="M16.0434 21.15C16.9987 21.1525 17.916 20.7775 18.5927 20.1074C19.2695 19.4373 19.65 18.5272 19.65 17.5778V8.86686C19.65 8.08762 19.302 7.34879 18.7004 6.84927L18.7005 6.84924L18.6978 6.84713L12.0277 1.55869C12.0276 1.55861 12.0275 1.55854 12.0274 1.55846C10.8114 0.586931 9.06991 0.617771 7.88961 1.63151L1.37438 6.84668C0.745076 7.33147 0.368654 8.07204 0.350041 8.86333L0.35 8.86333V8.86686V17.5689C0.35 19.5477 1.96557 21.15 3.95617 21.15H5.87229C6.5958 21.15 7.19202 20.5983 7.25284 19.8923L12.8563 19.7733L12.7063 19.7722C12.7063 19.7724 12.7063 19.7726 12.7063 19.7728C12.7037 20.1374 12.8478 20.4878 13.1063 20.7462C13.3649 21.0048 13.7164 21.15 14.0829 21.15H16.0434ZM16.0434 21.15L16.0438 21V21.15H16.0434Z" stroke="url(#paint1_linear_341_810)" stroke-width="0.3"/>
<path d="M16.0434 21.15C16.9987 21.1525 17.916 20.7775 18.5927 20.1074C19.2695 19.4373 19.65 18.5272 19.65 17.5778V8.86686C19.65 8.08762 19.302 7.34879 18.7004 6.84927L18.7005 6.84924L18.6978 6.84713L12.0277 1.55869C12.0276 1.55861 12.0275 1.55854 12.0274 1.55846C10.8114 0.586931 9.06991 0.617771 7.88961 1.63151L1.37438 6.84668C0.745076 7.33147 0.368654 8.07204 0.350041 8.86333L0.35 8.86333V8.86686V17.5689C0.35 19.5477 1.96557 21.15 3.95617 21.15H5.87229C6.5958 21.15 7.19202 20.5983 7.25284 19.8923L12.8563 19.7733L12.7063 19.7722C12.7063 19.7724 12.7063 19.7726 12.7063 19.7728C12.7037 20.1374 12.8478 20.4878 13.1063 20.7462C13.3649 21.0048 13.7164 21.15 14.0829 21.15H16.0434ZM16.0434 21.15L16.0438 21V21.15H16.0434Z" stroke="black" stroke-opacity="0.2" stroke-width="0.3"/>
<defs>
<linearGradient id="paint0_linear_341_810" x1="2.36149" y1="3.87671" x2="20.7926" y2="6.86635" gradientUnits="userSpaceOnUse">
<stop stop-color="white"/>
<stop offset="0.333333" stop-color="#D8D8D8"/>
<stop offset="0.666667" stop-color="#E7E7E7"/>
<stop offset="1" stop-color="white"/>
</linearGradient>
<linearGradient id="paint1_linear_341_810" x1="2.36149" y1="3.87671" x2="15.8405" y2="8.06106" gradientUnits="userSpaceOnUse">
<stop stop-color="white"/>
<stop offset="0.2" stop-color="#D8D8D8"/>
<stop offset="0.4" stop-color="#F1F1F1"/>
<stop offset="0.510417" stop-color="#D7D7D7"/>
<stop offset="0.6" stop-color="#F1F1F1"/>
<stop offset="0.6875" stop-color="#D3D3D3"/>
<stop offset="0.8" stop-color="#E7E7E7"/>
<stop offset="1" stop-color="white"/>
</linearGradient>
</defs>
</svg>
