<svg width="17" height="16" viewBox="0 0 17 16" fill="none" xmlns="http://www.w3.org/2000/svg">
<path d="M12.7199 10.8459C12.3924 10.5177 11.9478 10.3333 11.4842 10.3333L11.2275 10.0858C12.1569 9.00786 12.6677 7.63164 12.6667 6.20834C12.6667 5.02989 12.3172 3.87791 11.6625 2.89806C11.0078 1.91822 10.0772 1.15453 8.98849 0.703554C7.89975 0.252582 6.70173 0.134587 5.54592 0.36449C4.39012 0.594394 3.32845 1.16187 2.49516 1.99516C1.66187 2.82845 1.09439 3.89012 0.86449 5.04592C0.634587 6.20173 0.752582 7.39975 1.20355 8.48849C1.65453 9.57723 2.41822 10.5078 3.39806 11.1625C4.37791 11.8172 5.52989 12.1667 6.70834 12.1667C8.18417 12.1667 9.54084 11.6258 10.5858 10.7275L10.8333 10.9842C10.8333 11.4478 11.0177 11.8924 11.3459 12.2199L14.7331 15.6003C15.1107 15.9772 15.7223 15.9769 16.0996 15.5996C16.4769 15.2223 16.4772 14.6107 16.1003 14.2331L12.7199 10.8459ZM6.70834 10.3333C4.42584 10.3333 2.58334 8.49084 2.58334 6.20834C2.58334 3.92584 4.42584 2.08334 6.70834 2.08334C8.99084 2.08334 10.8333 3.92584 10.8333 6.20834C10.8333 8.49084 8.99084 10.3333 6.70834 10.3333Z" fill="#7781A7"/>
</svg>
